{
    "asset" : {
        "generator" : "Khronos glTF Blender I/O v1.6.16",
        "version" : "2.0"
    },
    "scene" : 0,
    "scenes" : [
        {
            "name" : "Scene",
            "nodes" : [
                6
            ]
        }
    ],
    "nodes" : [
        {
            "name" : "Camera",
            "rotation" : [
                0.4835360646247864,
                0.3368716239929199,
                -0.20870362222194672,
                0.7804826498031616
            ],
            "scale" : [
                0.8108803629875183,
                0.8108803033828735,
                0.8108803629875183
            ],
            "translation" : [
                6.82176399230957,
                4.088773727416992,
                5.428066730499268
            ]
        },
        {
            "name" : "Light",
            "rotation" : [
                0.16907577216625214,
                0.7558803558349609,
                -0.2721713185310364,
                0.570947527885437
            ],
            "scale" : [
                0.8108803033828735,
                0.8108803629875183,
                0.8108803033828735
            ],
            "translation" : [
                4.15993070602417,
                4.855504035949707,
                -1.0032240152359009
            ]
        },
        {
            "mesh" : 0,
            "name" : "Plane",
            "scale" : [
                1.1475207805633545,
                1.1475207805633545,
                1.1475207805633545
            ],
            "translation" : [
                0.023363769054412842,
                0.872218132019043,
                0.04580049216747284
            ]
        },
        {
            "mesh" : 1,
            "name" : "Plane.001",
            "scale" : [
                1.011494517326355,
                1.011494517326355,
                1.011494517326355
            ],
            "translation" : [
                -0.011308431625366211,
                0.9068676829338074,
                -0.019067108631134033
            ]
        },
        {
            "mesh" : 2,
            "name" : "Shops0010_download600.001",
            "rotation" : [
                0.5,
                0.5,
                -0.5,
                0.5
            ],
            "scale" : [
                0.8108803629875183,
                0.8108803629875183,
                0.8108803629875183
            ],
            "translation" : [
                0.798436164855957,
                0.0055263713002204895,
                -0.058258652687072754
            ]
        },
        {
            "mesh" : 3,
            "name" : "Shops0010_download600.003",
            "rotation" : [
                0.5041763782501221,
                -0.5032331347465515,
                0.4967110753059387,
                0.49582332372665405
            ],
            "scale" : [
                0.8108803629875183,
                0.8108803629875183,
                0.8108803629875183
            ],
            "translation" : [
                -0.9493650197982788,
                0.00322762131690979,
                -0.09309665113687515
            ]
        },
        {
            "children" : [
                0,
                1,
                2,
                3,
                4,
                5
            ],
            "mesh" : 4,
            "name" : "Plane.002",
            "scale" : [
                1.2332276105880737,
                1.2332276105880737,
                1.2332276105880737
            ],
            "translation" : [
                -1.0538959503173828,
                -0.08407936245203018,
                0.23174959421157837
            ]
        }
    ],
    "materials" : [
        {
            "doubleSided" : true,
            "name" : "Material.002",
            "pbrMetallicRoughness" : {
                "baseColorTexture" : {
                    "index" : 0
                },
                "metallicFactor" : 0,
                "roughnessFactor" : 0.5
            }
        },
        {
            "alphaMode" : "BLEND",
            "doubleSided" : true,
            "name" : "Shops0010_download600",
            "pbrMetallicRoughness" : {
                "baseColorTexture" : {
                    "index" : 1
                },
                "metallicFactor" : 0,
                "roughnessFactor" : 0.5
            }
        }
    ],
    "meshes" : [
        {
            "name" : "Plane",
            "primitives" : [
                {
                    "attributes" : {
                        "POSITION" : 0,
                        "NORMAL" : 1,
                        "TEXCOORD_0" : 2
                    },
                    "indices" : 3,
                    "material" : 0
                }
            ]
        },
        {
            "name" : "Plane.001",
            "primitives" : [
                {
                    "attributes" : {
                        "POSITION" : 4,
                        "NORMAL" : 5,
                        "TEXCOORD_0" : 6
                    },
                    "indices" : 3,
                    "material" : 0
                }
            ]
        },
        {
            "name" : "Shops0010_download600.001",
            "primitives" : [
                {
                    "attributes" : {
                        "POSITION" : 7,
                        "NORMAL" : 8,
                        "TEXCOORD_0" : 9
                    },
                    "indices" : 10,
                    "material" : 1
                }
            ]
        },
        {
            "name" : "Shops0010_download600.003",
            "primitives" : [
                {
                    "attributes" : {
                        "POSITION" : 11,
                        "NORMAL" : 12,
                        "TEXCOORD_0" : 13
                    },
                    "indices" : 14,
                    "material" : 1
                }
            ]
        },
        {
            "name" : "Plane.002",
            "primitives" : [
                {
                    "attributes" : {
                        "POSITION" : 15,
                        "NORMAL" : 16,
                        "TEXCOORD_0" : 17
                    },
                    "indices" : 3,
                    "material" : 0
                }
            ]
        }
    ],
    "textures" : [
        {
            "sampler" : 0,
            "source" : 0
        },
        {
            "sampler" : 1,
            "source" : 1
        }
    ],
    "images" : [
        {
            "bufferView" : 4,
            "mimeType" : "image/jpeg",
            "name" : "tiles"
        },
        {
            "bufferView" : 12,
            "mimeType" : "image/png",
            "name" : "Shops0010_download600"
        }
    ],
    "accessors" : [
        {
            "bufferView" : 0,
            "componentType" : 5126,
            "count" : 24,
            "max" : [
                0.96439528465271,
                0.00048448145389556885,
                0.9415479302406311
            ],
            "min" : [
                -1.1469581127166748,
                -0.040068041533231735,
                -1.1698054075241089
            ],
            "type" : "VEC3"
        },
        {
            "bufferView" : 1,
            "componentType" : 5126,
            "count" : 24,
            "type" : "VEC3"
        },
        {
            "bufferView" : 2,
            "componentType" : 5126,
            "count" : 24,
            "type" : "VEC2"
        },
        {
            "bufferView" : 3,
            "componentType" : 5123,
            "count" : 36,
            "type" : "SCALAR"
        },
        {
            "bufferView" : 5,
            "componentType" : 5126,
            "count" : 24,
            "max" : [
                0.96439528465271,
                0.00048448145389556885,
                0.9415479302406311
            ],
            "min" : [
                -1.1469581127166748,
                -0.040068041533231735,
                -1.1698054075241089
            ],
            "type" : "VEC3"
        },
        {
            "bufferView" : 6,
            "componentType" : 5126,
            "count" : 24,
            "type" : "VEC3"
        },
        {
            "bufferView" : 7,
            "componentType" : 5126,
            "count" : 24,
            "type" : "VEC2"
        },
        {
            "bufferView" : 8,
            "componentType" : 5126,
            "count" : 704,
            "max" : [
                1.2890435457229614,
                0.18601581454277039,
                -0.0062454938888549805
            ],
            "min" : [
                -1.2471669912338257,
                -2.3430240154266357,
                -1.0223143100738525
            ],
            "type" : "VEC3"
        },
        {
            "bufferView" : 9,
            "componentType" : 5126,
            "count" : 704,
            "type" : "VEC3"
        },
        {
            "bufferView" : 10,
            "componentType" : 5126,
            "count" : 704,
            "type" : "VEC2"
        },
        {
            "bufferView" : 11,
            "componentType" : 5123,
            "count" : 1389,
            "type" : "SCALAR"
        },
        {
            "bufferView" : 13,
            "componentType" : 5126,
            "count" : 638,
            "max" : [
                1.2890435457229614,
                0.18601581454277039,
                -0.0062454938888549805
            ],
            "min" : [
                -1.0752688646316528,
                -2.092162609100342,
                -1.0223143100738525
            ],
            "type" : "VEC3"
        },
        {
            "bufferView" : 14,
            "componentType" : 5126,
            "count" : 638,
            "type" : "VEC3"
        },
        {
            "bufferView" : 15,
            "componentType" : 5126,
            "count" : 638,
            "type" : "VEC2"
        },
        {
            "bufferView" : 16,
            "componentType" : 5123,
            "count" : 1251,
            "type" : "SCALAR"
        },
        {
            "bufferView" : 17,
            "componentType" : 5126,
            "count" : 24,
            "max" : [
                0.96439528465271,
                0.00048448145389556885,
                0.9415479302406311
            ],
            "min" : [
                -1.1469581127166748,
                -0.040068041533231735,
                -1.1698054075241089
            ],
            "type" : "VEC3"
        },
        {
            "bufferView" : 18,
            "componentType" : 5126,
            "count" : 24,
            "type" : "VEC3"
        },
        {
            "bufferView" : 19,
            "componentType" : 5126,
            "count" : 24,
            "type" : "VEC2"
        }
    ],
    "bufferViews" : [
        {
            "buffer" : 0,
            "byteLength" : 288,
            "byteOffset" : 0
        },
        {
            "buffer" : 0,
            "byteLength" : 288,
            "byteOffset" : 288
        },
        {
            "buffer" : 0,
            "byteLength" : 192,
            "byteOffset" : 576
        },
        {
            "buffer" : 0,
            "byteLength" : 72,
            "byteOffset" : 768
        },
        {
            "buffer" : 0,
            "byteLength" : 44477,
            "byteOffset" : 840
        },
        {
            "buffer" : 0,
            "byteLength" : 288,
            "byteOffset" : 45320
        },
        {
            "buffer" : 0,
            "byteLength" : 288,
            "byteOffset" : 45608
        },
        {
            "buffer" : 0,
            "byteLength" : 192,
            "byteOffset" : 45896
        },
        {
            "buffer" : 0,
            "byteLength" : 8448,
            "byteOffset" : 46088
        },
        {
            "buffer" : 0,
            "byteLength" : 8448,
            "byteOffset" : 54536
        },
        {
            "buffer" : 0,
            "byteLength" : 5632,
            "byteOffset" : 62984
        },
        {
            "buffer" : 0,
            "byteLength" : 2778,
            "byteOffset" : 68616
        },
        {
            "buffer" : 0,
            "byteLength" : 255352,
            "byteOffset" : 71396
        },
        {
            "buffer" : 0,
            "byteLength" : 7656,
            "byteOffset" : 326748
        },
        {
            "buffer" : 0,
            "byteLength" : 7656,
            "byteOffset" : 334404
        },
        {
            "buffer" : 0,
            "byteLength" : 5104,
            "byteOffset" : 342060
        },
        {
            "buffer" : 0,
            "byteLength" : 2502,
            "byteOffset" : 347164
        },
        {
            "buffer" : 0,
            "byteLength" : 288,
            "byteOffset" : 349668
        },
        {
            "buffer" : 0,
            "byteLength" : 288,
            "byteOffset" : 349956
        },
        {
            "buffer" : 0,
            "byteLength" : 192,
            "byteOffset" : 350244
        }
    ],
    "samplers" : [
        {
            "magFilter" : 9729,
            "minFilter" : 9987
        },
        {
            "magFilter" : 9729,
            "minFilter" : 9987,
            "wrapS" : 33071,
            "wrapT" : 33071
        }
    ],
    "buffers" : [
        {
            "byteLength" : 350436,
            "uri" : "data:application/octet-stream;base64,"
        }
    ]
}
